HIERARCHY
ROOT pelvis
{
  OFFSET 0 100 0
  CHANNELS 6 Xposition Yposition Zposition Zrotation Xrotation Yrotation
  JOINT pelvis_right_femur
  {
    OFFSET -10.78128 -3.44521 -0.5502486
    CHANNELS 3 Zrotation Xrotation Yrotation
    JOINT right_femur_tibia
    {
      OFFSET -0.8047443 -44.0398 -0.1307829
      CHANNELS 3 Zrotation Xrotation Yrotation
      JOINT right_tibia_foot
      {
        OFFSET 3.006224 -47.83518 -5
        CHANNELS 3 Zrotation Xrotation Yrotation
        End Site
        {
          OFFSET 0 -5 15
        }
      }
    }
  }
  JOINT pelvis_left_femur
  {
    OFFSET 10.78128 -3.44521 -0.5502486
    CHANNELS 3 Zrotation Xrotation Yrotation
    JOINT left_femur_tibia
    {
      OFFSET 0.8047443 -44.0398 -0.1307829
      CHANNELS 3 Zrotation Xrotation Yrotation
      JOINT left_tibia_foot
      {
        OFFSET -4.370144 -48.10324 -4.275266
        CHANNELS 3 Zrotation Xrotation Yrotation
        End Site
        {
          OFFSET 0 -5 15
        }
      }
    }
  }
  JOINT pelvis_spine1
  {
    OFFSET 0 6.468898 -3.129235
    CHANNELS 3 Zrotation Xrotation Yrotation
    JOINT spine1
    {
      OFFSET 0 23.15396 4.99043
      CHANNELS 3 Zrotation Xrotation Yrotation
      JOINT spine2
      {
        OFFSET 0 20.79997 -5.064912
        CHANNELS 3 Zrotation Xrotation Yrotation
        JOINT neck
        {
          OFFSET 0 14.38658 9.616178
          CHANNELS 3 Zrotation Xrotation Yrotation
          End Site
          {
            OFFSET 0 20 0
          }
        }
      }
      JOINT right_manubrium
      {
        OFFSET -5.722621 16.35077 3.967754
        CHANNELS 3 Zrotation Xrotation Yrotation
        JOINT right_clavicle
        {
          OFFSET -13.16364 1.694482 -4.693211
          CHANNELS 3 Zrotation Xrotation Yrotation
          JOINT right_humerus
          {
            OFFSET -28.5034 -0.3100689 -2.792744
            CHANNELS 3 Zrotation Xrotation Yrotation
            JOINT right_radius
            {
              OFFSET -25.15693 0.02248979 -1.271978
              CHANNELS 3 Zrotation Xrotation Yrotation
              End Site
              {
                OFFSET -15 0 0
              }
            }
          }
        }
      }
      JOINT left_manubrium
      {
        OFFSET 5.722621 16.35077 3.967754
        CHANNELS 3 Zrotation Xrotation Yrotation
        JOINT left_clavicle
        {
          OFFSET 13.16364 1.694482 -4.693211
          CHANNELS 3 Zrotation Xrotation Yrotation
          JOINT left_humerus
          {
            OFFSET 29.39168 -1.063119 -2.237045
            CHANNELS 3 Zrotation Xrotation Yrotation
            JOINT left_radius
            {
              OFFSET 24.59957 -0.9528479 0.9047498
              CHANNELS 3 Zrotation Xrotation Yrotation
              End Site
              {
                OFFSET 15 -0 -0
              }
            }
          }
        }
      }
    }
  }
}
MOTION
Frames: 19
Frame Time: 0.0416666666667
0 103.5113 0 1.386108 -1.435054 -0.4046879 2.089241 -12.07923 8.831358 -0 38.57002 -0 -7.138425 -18.36162 -2.31231 -7.617203 8.969415 -22.89456 -0 4.739337 -0 14.68451 -10.52712 28.40019 -4.270867 -4.320061 4.685413 3.060301 11.0752 -8.01228 0.4926384 22.26082 7.078125 3.073062 -24.35211 8.859719 7.141923 -20.70663 12.47835 85.21439 38.23391 -17.84785 -0 0 15.53879 -9.057078 7.973012 6.543097 4.828481 -19.48966 -2.521207 -91.86247 20.33472 20.31415 0 0 -13.2597 13.91163 14.26559 -3.028376
0.4084553 103.5628 1.288567 1.283809 -1.183085 -0.7957639 2.395813 -13.49023 8.721441 -0 37.57458 -0 -6.979897 -17.58091 -2.282717 -7.537418 9.27824 -22.62302 -0 4.602703 -0 14.31344 -11.5903 28.28738 -4.25403 -4.206808 4.700546 3.064724 10.93512 -8.027561 0.6030058 22.0734 7.07022 3.136217 -24.46824 8.936195 7.029419 -20.55441 12.3664 85.22245 37.86861 -17.9727 -0 0 15.57437 -8.988102 8.025374 6.291417 5.202479 -19.71034 -2.251727 -91.81362 20.17786 20.04004 0 0 -13.51408 14.10317 14.33822 -3.320361
0.7709703 103.4549 2.873562 1.034091 -0.5502034 -1.009965 3.235989 -17.21708 8.596935 -0 35.35205 -0 -6.294921 -15.84202 -2.536969 -7.301959 10.27289 -22.12131 -0 4.506345 -0 12.40484 -14.96187 27.65892 -4.203431 -3.80051 4.681043 3.040599 10.27508 -8.026181 0.955874 21.70754 7.012645 3.242131 -24.66773 9.166375 6.683951 -20.0181 11.96102 85.27334 36.77127 -18.41513 -0 0 15.7651 -8.486027 8.128525 5.483496 6.012388 -20.01246 -1.558106 -92.05314 21.37812 19.74853 0 0 -14.44888 12.86499 14.99819 -1.929527
1.101347 103.2462 4.696837 0.765025 0.02249758 -1.088036 3.986442 -20.0217 8.563398 -0 33.69758 -0 -5.929634 -14.34161 -2.62937 -7.069697 10.84563 -21.64885 -0 4.653039 -0 10.9629 -17.23641 27.00965 -4.066089 -3.488729 4.664885 3.031416 9.863277 -8.051282 1.176888 21.35024 7.018495 3.371247 -24.92582 9.32188 6.491672 -19.67421 11.71786 85.28046 36.08161 -18.71931 -0 0 15.94894 -8.200094 8.258341 4.932928 6.607986 -20.28312 -1.061963 -92.26778 21.98735 19.66299 0 0 -15.02535 12.1727 15.3658 -1.131161
1.402016 102.9383 6.79253 0.4497923 0.7112429 -1.035821 4.732583 -22.91071 8.380222 -0 31.64472 -0 -5.827672 -12.62436 -2.584782 -6.79358 11.33588 -21.01162 -0 4.782215 -0 9.564621 -19.25455 26.07091 -3.87177 -3.164262 4.606072 3.042712 9.522725 -8.131008 1.320834 20.94491 7.08651 3.554153 -25.25514 9.423576 6.328807 -19.34471 11.51924 85.34301 35.5991 -19.08621 -0 0 15.97674 -8.110681 8.451849 4.532597 7.20516 -20.66718 -0.6377497 -92.32392 22.26349 19.4663 0 0 -15.70442 11.79743 15.58952 -0.6825586
1.674605 102.5318 9.181114 0.1047144 1.442986 -0.8595548 5.44234 -25.71582 8.096156 -0 29.37605 -0 -5.911001 -10.85833 -2.458372 -6.488916 11.77733 -20.28042 -0 4.998836 -0 8.151226 -20.98622 24.89033 -3.631044 -2.840775 4.508188 3.066787 9.227676 -8.243804 1.407377 20.53742 7.188775 3.758096 -25.6088 9.480489 6.176899 -19.02018 11.35165 85.46186 35.25294 -19.50084 -0 0 15.86819 -8.155028 8.679661 4.25519 7.75617 -21.09554 -0.2950395 -92.26974 22.38907 19.20182 0 0 -16.45937 11.55735 15.72541 -0.3703798
1.918678 102.0263 11.89578 -0.2773485 2.203717 -0.5650279 6.113527 -28.47236 7.690147 -0 26.84128 -0 -6.159081 -9.045525 -2.268392 -6.148395 12.22652 -19.44703 -0 5.382959 -0 6.626456 -22.47172 23.42053 -3.33785 -2.508819 4.359916 3.100791 8.950825 -8.383829 1.448469 20.1417 7.314162 3.973811 -25.96891 9.494459 6.010747 -18.66966 11.1981 85.65872 34.98558 -19.98312 -0 0 15.59489 -8.317956 8.932602 4.086016 8.258588 -21.55706 -0.03394954 -92.1021 22.45203 18.84135 0 0 -17.32652 11.36353 15.80169 -0.0919729
2.133089 101.4293 14.9738 -0.704028 2.956254 -0.1620014 6.749332 -31.10381 7.182905 -0 24.12606 -0 -6.541074 -7.244733 -2.04108 -5.767065 12.70381 -18.52842 -0 6.088677 -0 4.922067 -23.66341 21.64904 -2.978785 -2.168505 4.156686 3.14039 8.67863 -8.538764 1.455383 19.77731 7.447678 4.185505 -26.31525 9.468384 5.818239 -18.27783 11.05183 85.94002 34.74706 -20.52628 -0 0 15.15677 -8.570714 9.195598 4.009619 8.682546 -22.01504 0.1362197 -91.84797 22.53458 18.40639 0 0 -18.27587 11.12597 15.83663 0.2601862
2.316346 100.7617 18.45893 -1.18227 3.656891 0.3322362 7.353548 -33.48945 6.594343 -0 21.3313 -0 -7.037092 -5.523337 -1.799972 -5.338531 13.21325 -17.53509 -0 7.325111 -0 2.998192 -24.45418 19.56981 -2.535442 -1.823323 3.894119 3.182298 8.407827 -8.696677 1.435255 19.46493 7.57413 4.376266 -26.62648 9.400767 5.591031 -17.83151 10.91151 86.31338 34.49802 -21.11849 -0 0 14.5457 -8.893763 9.455277 4.019313 8.987689 -22.43145 0.1974308 -91.52567 22.68415 17.9141 0 0 -19.25814 10.78786 15.83118 0.7547826
2.467267 100.0664 22.39994 -1.711606 4.243663 0.8873191 7.930172 -35.42263 5.958171 -0 18.6188 -0 -7.625729 -3.983183 -1.574773 -4.858951 13.73052 -16.48246 -0 9.386802 -0 0.8643334 -24.66496 17.21579 -1.988166 -1.48381 3.573436 3.223296 8.147045 -8.842363 1.393453 19.23133 7.674003 4.523968 -26.8747 9.286751 5.326673 -17.323 10.78217 86.78236 34.20676 -21.73484 -0 0 13.75572 -9.266929 9.697364 4.11214 9.115812 -22.75671 0.1234727 -91.15593 22.92484 17.3917 0 0 -20.18748 10.31391 15.7713 1.435076
2.585693 99.41875 26.84597 -2.274289 4.628922 1.452703 8.477588 -36.58207 5.323489 -0 16.228 -0 -8.279851 -2.770927 -1.406037 -4.332157 14.18555 -15.39409 -0 12.6741 -0 -1.390383 -24.04673 14.69056 -1.324114 -1.169054 3.20771 3.259595 7.919737 -8.95519 1.334471 19.11316 7.720891 4.599995 -27.02031 9.117173 5.030391 -16.75242 10.67599 87.34377 33.8529 -22.33309 -0 0 12.78538 -9.667253 9.906559 4.287295 8.990415 -22.92784 -0.1172894 -90.76367 23.25507 16.87851 0 0 -20.93482 9.694153 15.62802 2.312706
2.673403 98.93793 31.83305 -2.820938 4.695978 1.951259 8.976775 -36.51137 4.756391 -0 14.49284 -0 -8.962429 -2.081342 -1.347979 -3.779216 14.42651 -14.30752 -0 17.6836 -0 -3.568083 -22.31604 12.20328 -0.5545893 -0.9056524 2.834227 3.285502 7.767215 -9.006401 1.263466 19.15874 7.680169 4.571395 -27.00891 8.878652 4.721183 -16.13475 10.61336 87.97804 33.44119 -22.84617 -0 0 11.65074 -10.06419 10.06796 4.541654 8.52513 -22.87063 -0.5500694 -90.38556 23.64712 16.43589 0 0 -21.32269 8.947234 15.36277 3.361465
2.734566 98.791 37.35537 -3.255146 4.314603 2.281944 9.366502 -34.66575 4.324292 -0 13.79587 -0 -9.633515 -2.122649 -1.458001 -3.252173 14.16858 -13.27417 -0 24.89454 -0 -5.371672 -19.26912 10.06732 0.2536334 -0.7173262 2.530856 3.291386 7.746381 -8.958797 1.187475 19.4226 7.51377 4.413019 -26.77563 8.554817 4.44055 -15.51047 10.62121 88.6329 33.03158 -23.17847 -0 0 10.40537 -10.42013 10.17312 4.865202 7.656949 -22.52117 -1.166338 -90.07529 24.04965 16.15232 0 0 -21.15075 8.122933 14.94402 4.510358
2.774004 99.16763 43.31906 -3.431693 3.395788 2.347768 9.516127 -30.61814 4.054878 -0 14.37348 -0 -10.27709 -3.00787 -1.758189 -2.843457 12.95671 -12.34384 -0 34.43779 -0 -6.501742 -15.01224 8.616757 0.9402227 -0.5977252 2.424762 3.261077 7.911163 -8.772782 1.115116 19.94393 7.198193 4.135871 -26.26648 8.130278 4.257284 -14.95571 10.7243 89.20074 32.77833 -23.21363 -0 0 9.164086 -10.70699 10.23179 5.241371 6.41765 -21.88244 -1.882242 -89.89761 24.40301 16.12828 0 0 -20.28966 7.293095 14.3816 5.649785
2.791464 100.1968 49.5 -3.195698 1.985862 2.117511 9.244597 -24.46398 3.885954 -0 15.93624 -0 -10.93221 -4.583867 -2.172474 -2.662484 10.23718 -11.53117 -0 45.51813 -0 -6.83344 -10.23967 8.052491 1.249919 -0.4735943 2.662506 3.170178 8.267858 -8.420683 1.053976 20.70755 6.756595 3.821685 -25.47763 7.599372 4.247341 -14.57825 10.9257 89.5022 32.92344 -22.83399 -0 0 8.112181 -10.95029 10.28001 5.662027 5.022179 -21.10366 -2.516266 -89.89799 24.67164 16.41738 0 0 -18.84845 6.521739 13.76843 6.665166
2.775744 101.8126 55.56773 -2.480881 0.3201948 1.677415 8.441598 -17.15163 3.65717 -0 17.39383 -0 -11.65775 -6.373752 -2.505471 -2.743518 5.661465 -10.78921 -0 55.9883 -0 -6.548102 -6.235949 8.348584 0.9493453 -0.205157 3.313813 2.988036 8.725411 -7.898699 1.010709 21.61534 6.277693 3.614167 -24.47812 6.983024 4.424633 -14.48259 11.18526 89.30819 33.63408 -21.92553 -0 0 7.478293 -11.27988 10.35751 6.155123 3.873152 -20.47892 -2.852695 -90.0582 24.86809 16.93812 0 0 -17.26545 5.830608 13.2787 7.484649
2.711911 103.68 61.2238 -1.421174 -1.29778 1.18208 7.233598 -10.1317 3.200327 -0 17.32729 -0 -12.38687 -7.884261 -2.55773 -2.927739 -0.4882022 -10.02415 -0 62.94739 -0 -6.058473 -4.208461 9.349411 0.06080802 0.3240154 4.263689 2.685288 9.113495 -7.218 1.002515 22.51792 5.87247 3.617325 -23.36177 6.350532 4.658627 -14.71825 11.42418 88.42843 34.69722 -20.34739 -0 0 7.48222 -11.90963 10.44749 6.788378 3.364323 -20.23583 -2.795741 -90.30043 25.0113 17.47106 0 0 -16.04609 5.20912 13.06232 8.085023
2.605958 105.3123 66.36257 -0.3473709 -2.714184 0.7224609 5.990955 -4.337533 2.509286 -0 15.15181 -0 -12.83758 -9.077359 -2.303869 -2.881538 -7.28531 -9.13334 -0 64.40375 -0 -5.726829 -4.338659 10.9368 -1.031447 1.090475 5.240457 2.248411 9.299261 -6.391555 1.061371 23.28772 5.591845 3.783873 -22.17668 5.815355 4.709141 -15.27494 11.57155 86.8305 35.46035 -17.95463 -0 0 8.306153 -13.00805 10.45791 7.621348 3.586444 -20.27427 -2.463955 -90.58148 25.03727 17.85711 0 0 -15.26518 4.666432 13.09811 8.454061
2.501229 106.3053 71.09432 0.3898551 -3.906126 0.2682969 5.091977 0.3157371 1.785217 -0 11.57514 -0 -12.69694 -10.3658 -1.871205 -2.30108 -13.77615 -8.043435 -0 60.27443 -0 -5.629431 -5.706809 12.99884 -1.824531 1.925873 5.99946 1.701549 9.273748 -5.45977 1.19472 23.83812 5.420597 3.957279 -20.97182 5.477223 4.410732 -16.1396 11.60967 84.70039 35.32623 -14.76447 -0 0 10.06921 -14.58097 10.3114 8.669426 4.265414 -20.24068 -2.093077 -90.96994 24.81471 18.2315 0 0 -14.51251 4.229482 13.18903 8.613215
